<?xml version="1.0" standalone="no"?>
<!DOCTYPE svg PUBLIC "-//W3C//DTD SVG 20010904//EN"
 "http://www.w3.org/TR/2001/REC-SVG-20010904/DTD/svg10.dtd">
<svg version="1.0" xmlns="http://www.w3.org/2000/svg"
 width="300.000000pt" height="300.000000pt" viewBox="0 0 300.000000 300.000000"
 preserveAspectRatio="xMidYMid meet">
<metadata>
Created by potrace 1.14, written by Peter Selinger 2001-2017
</metadata>
<g transform="translate(0.000000,300.000000) scale(0.100000,-0.100000)"
fill="#000000" stroke="none">
<path d="M1070 2820 c-8 -5 -18 -6 -22 -4 -4 3 -26 -5 -47 -17 -43 -24 -79
-78 -85 -130 -3 -19 -5 -36 -5 -39 -1 -3 -21 -6 -45 -6 -78 -2 -124 -57 -102
-121 6 -17 14 -35 19 -39 13 -13 8 -21 -32 -47 l-39 -26 -15 22 c-13 19 -23
22 -88 22 -66 0 -78 -3 -116 -30 -49 -35 -82 -95 -87 -158 -4 -50 -13 -70 -25
-62 -15 9 -74 -39 -81 -66 -10 -35 11 -92 37 -103 17 -8 20 -16 16 -42 -3 -20
1 -40 11 -56 15 -23 15 -26 -4 -43 -11 -10 -20 -22 -20 -26 0 -16 118 -125
206 -190 50 -37 91 -73 92 -81 14 -158 24 -172 338 -479 180 -175 192 -190
192 -234 0 -20 5 -42 11 -48 9 -9 3 -14 -21 -23 -34 -11 -51 -36 -63 -91 -6
-28 -2 -37 24 -63 16 -17 44 -33 61 -37 28 -5 31 -9 25 -32 -13 -49 -16 -66
-22 -116 -3 -27 -12 -59 -19 -70 -20 -28 -17 -34 14 -30 25 3 30 -1 41 -31 14
-40 60 -78 119 -98 23 -8 55 -25 71 -37 42 -31 113 -29 185 5 30 14 60 26 66
26 19 0 94 42 113 63 9 11 17 26 17 34 0 7 8 13 18 14 9 0 34 21 56 45 l38 44
-41 37 c-41 36 -87 100 -79 108 2 2 19 7 38 10 19 3 43 8 53 11 21 7 50 61 43
80 -3 8 -1 14 5 14 6 0 8 4 5 8 -3 5 -7 21 -10 36 -6 32 -33 66 -52 66 -13 0
-37 34 -30 41 3 2 6 26 9 52 3 27 13 58 23 70 10 12 111 114 225 227 191 190
249 261 249 304 0 21 31 48 130 112 104 68 163 99 223 118 17 6 17 7 0 30 -10
14 -45 41 -78 60 -33 20 -55 36 -49 36 17 0 74 58 85 88 19 51 -21 125 -83
155 -33 16 -33 16 -31 79 1 35 5 73 8 85 4 12 6 25 5 29 -1 4 2 10 7 13 5 3
13 17 19 31 18 40 -4 52 -86 49 -39 -1 -72 0 -74 2 -2 2 -7 21 -10 43 -10 60
-8 59 -81 40 -50 -12 -101 -51 -125 -94 -5 -8 -12 -11 -16 -7 -5 4 -3 16 4 25
7 9 25 44 42 77 31 64 33 110 5 131 -8 6 -12 13 -9 17 9 9 -49 17 -94 13 l-42
-4 -33 69 c-17 38 -38 69 -45 69 -7 0 -11 4 -7 9 6 11 -43 48 -85 62 -47 17
-111 3 -146 -30 -44 -44 -56 -60 -49 -71 10 -16 -1 -12 -53 21 -42 26 -53 29
-72 19 -36 -19 -40 -48 -20 -125 2 -5 -3 -25 -10 -43 -11 -30 -15 -32 -45 -28
-36 6 -55 -8 -58 -43 -2 -32 -12 -25 -24 17 -22 76 -74 216 -85 229 -12 15
-58 18 -58 4 0 -5 -9 -13 -20 -16 -11 -4 -20 -15 -20 -26 0 -18 -3 -17 -25 10
-29 34 -82 69 -111 74 -10 1 -24 6 -29 9 -6 4 -17 3 -25 -2z m155 -2108 c3 -8
3 -17 1 -19 -7 -8 -76 18 -76 27 0 16 69 8 75 -8z m633 -19 c0 -13 -6 -23 -13
-23 -8 0 -15 -4 -17 -9 -1 -5 -20 -12 -41 -15 -33 -5 -38 -4 -35 11 3 13 12
17 33 16 22 -2 26 0 15 7 -11 7 -11 10 -2 10 7 0 11 4 8 9 -7 10 11 19 35 18
10 -1 17 -10 17 -24z m22 -3 c0 -5 -2 -10 -4 -10 -3 0 -8 5 -11 10 -3 6 -1 10
4 10 6 0 11 -4 11 -10z"/>
</g>
</svg>
